<?xml version="1.0" encoding="UTF-8" standalone="no" ?>
<!DOCTYPE svg PUBLIC "-//W3C//DTD SVG 1.1//EN" "http://www.w3.org/Graphics/SVG/1.1/DTD/svg11.dtd">
<svg xmlns="http://www.w3.org/2000/svg" xmlns:xlink="http://www.w3.org/1999/xlink" version="1.1" width="1080" height="1080" viewBox="0 0 1080 1080" xml:space="preserve">
<desc>Created with Fabric.js 5.2.4</desc>
<defs>
</defs>
<rect x="0" y="0" width="100%" height="100%" fill="transparent"></rect>
<g transform="matrix(1 0 0 1 540 540)" id="bd4fe554-daa3-48b4-8060-b69c2e81095f"  >
<rect style="stroke: none; stroke-width: 1; stroke-dasharray: none; stroke-linecap: butt; stroke-dashoffset: 0; stroke-linejoin: miter; stroke-miterlimit: 4; fill: rgb(255,255,255); fill-rule: nonzero; opacity: 1; visibility: hidden;" vector-effect="non-scaling-stroke"  x="-540" y="-540" rx="0" ry="0" width="1080" height="1080" />
</g>
<g transform="matrix(1 0 0 1 540 540)" id="8de12360-131a-4d41-a7dd-518d9847ea6c"  >
</g>
<g transform="matrix(1 0 0 1 540 540)"  >
<rect style="stroke: none; stroke-width: 1; stroke-dasharray: none; stroke-linecap: butt; stroke-dashoffset: 0; stroke-linejoin: miter; stroke-miterlimit: 4; fill: rgb(255,255,255); fill-rule: nonzero; opacity: 1; visibility: hidden;" vector-effect="non-scaling-stroke"  x="-540" y="-450" rx="0" ry="0" width="1080" height="900" />
</g>
<g transform="matrix(55.48 0 0 55.48 540 539.96)"  >
<path style="stroke: none; stroke-width: 1; stroke-dasharray: none; stroke-linecap: butt; stroke-dashoffset: 0; stroke-linejoin: miter; stroke-miterlimit: 4; fill: rgb(90,18,116); fill-rule: nonzero; opacity: 1;" vector-effect="non-scaling-stroke"  transform=" translate(-8, -8)" d="M 14.75 4 L 13.3 4 C 13.606599893865315 3.353786566516041 13.56320627351827 2.595954257931918 13.184847568170216 1.9889616825072318 C 12.80648886282216 1.3819691070825457 12.145198537206845 1.0092924114489783 11.43 1 C 10.392873623861565 0.9746650754934404 9.382448128314339 1.3304487006861243 8.59 1.9999999999999991 C 8.364903699215533 2.196595059897368 8.166547487121436 2.421847029563546 8 2.670000000000001 C 7.833452512878564 2.4218470295635455 7.6350963007844665 2.196595059897368 7.41 2 C 6.617551871685661 1.3304487006861254 5.607126376138436 0.9746650754934405 4.57 1.0000000000000004 C 3.854801462793155 1.0092924114489794 3.193511137177838 1.3819691070825475 2.8151524318297847 1.9889616825072332 C 2.4367937264817305 2.595954257931919 2.3934001061346857 3.353786566516042 2.7 4 L 1.25 4 C 0.5596440627115082 4 0 4.5596440627115085 0 5.25 L 0 13.75 C 0 14.440355937288492 0.5596440627115082 15 1.25 15 L 14.75 15 C 15.440355937288492 15 16 14.440355937288492 16 13.75 L 16 5.25 C 16 4.5596440627115085 15.440355937288492 4 14.75 4 z M 9.42 2.94 C 9.980753897209652 2.474756082697814 10.691661966861528 2.2294927986679167 11.420000000000002 2.2499999999999996 C 11.889442037356174 2.25 12.27 2.6305579626438256 12.27 3.0999999999999996 C 12.27 3.569442037356174 11.889442037356174 3.95 11.42 3.95 L 8.74 3.95 C 8.872704211014268 3.558797274332587 9.107455699498075 3.210122269378695 9.419999999999998 2.940000000000001 z M 4.57 2.25 C 5.298338033138474 2.2294927986679176 6.009246102790348 2.474756082697814 6.569999999999999 2.9399999999999995 C 6.881083414347586 3.2073584722998976 7.1157213629823595 3.5524142791157405 7.25 3.9400000000000004 L 4.57 3.94 C 4.100557967484817 3.9399999931538052 3.7200000123961323 3.5594420325151837 3.7200000123961323 3.09 C 3.7200000123961323 2.6205579674848165 4.100557967484817 2.240000006846195 4.57 2.24 z M 1.2500000000000004 5.25 L 14.75 5.25 L 14.75 6.5 L 1.25 6.5 L 1.25 5.25 z M 1.2500000000000004 13.75 L 1.2500000000000004 9 L 14.75 9 L 14.75 13.75 z" stroke-linecap="round" />
</g>
<g transform="matrix(7 0 0 7 792.42 738.34)"  >
<circle style="stroke: none; stroke-width: 1; stroke-dasharray: none; stroke-linecap: butt; stroke-dashoffset: 0; stroke-linejoin: miter; stroke-miterlimit: 4; fill: rgb(98,126,234); fill-rule: evenodd; opacity: 1;" vector-effect="non-scaling-stroke"  cx="0" cy="0" r="16" />
</g>
<g transform="matrix(7 0 0 7 822.12 697.11)"  >
<path style="stroke: none; stroke-width: 1; stroke-dasharray: none; stroke-linecap: butt; stroke-dashoffset: 0; stroke-linejoin: miter; stroke-miterlimit: 4; fill: rgb(255,255,255); fill-opacity: 0.6; fill-rule: nonzero; opacity: 1;" vector-effect="non-scaling-stroke"  transform=" translate(-20.25, -10.11)" d="M 16.498 4 L 16.498 12.87 L 23.995 16.22 z" stroke-linecap="round" />
</g>
<g transform="matrix(7 0 0 7 769.66 697.11)"  >
<path style="stroke: none; stroke-width: 1; stroke-dasharray: none; stroke-linecap: butt; stroke-dashoffset: 0; stroke-linejoin: miter; stroke-miterlimit: 4; fill: rgb(255,255,255); fill-rule: nonzero; opacity: 1;" vector-effect="non-scaling-stroke"  transform=" translate(-12.75, -10.11)" d="M 16.498 4 L 9 16.22 L 16.498 12.87 z" stroke-linecap="round" />
</g>
<g transform="matrix(7 0 0 7 822.15 785.95)"  >
<path style="stroke: none; stroke-width: 1; stroke-dasharray: none; stroke-linecap: butt; stroke-dashoffset: 0; stroke-linejoin: miter; stroke-miterlimit: 4; fill: rgb(255,255,255); fill-opacity: 0.6; fill-rule: nonzero; opacity: 1;" vector-effect="non-scaling-stroke"  transform=" translate(-20.25, -22.81)" d="M 16.498 21.968 L 16.498 27.995 L 24 17.616 z" stroke-linecap="round" />
</g>
<g transform="matrix(7 0 0 7 769.66 785.95)"  >
<path style="stroke: none; stroke-width: 1; stroke-dasharray: none; stroke-linecap: butt; stroke-dashoffset: 0; stroke-linejoin: miter; stroke-miterlimit: 4; fill: rgb(255,255,255); fill-rule: nonzero; opacity: 1;" vector-effect="non-scaling-stroke"  transform=" translate(-12.75, -22.81)" d="M 16.498 27.995 L 16.498 21.967000000000002 L 9 17.616 z" stroke-linecap="round" />
</g>
<g transform="matrix(7 0 0 7 822.12 743.41)"  >
<path style="stroke: none; stroke-width: 1; stroke-dasharray: none; stroke-linecap: butt; stroke-dashoffset: 0; stroke-linejoin: miter; stroke-miterlimit: 4; fill: rgb(255,255,255); fill-opacity: 0.2; fill-rule: nonzero; opacity: 1;" vector-effect="non-scaling-stroke"  transform=" translate(-20.25, -16.72)" d="M 16.498 20.573 L 23.995 16.22 L 16.498 12.872 z" stroke-linecap="round" />
</g>
<g transform="matrix(7 0 0 7 769.66 743.41)"  >
<path style="stroke: none; stroke-width: 1; stroke-dasharray: none; stroke-linecap: butt; stroke-dashoffset: 0; stroke-linejoin: miter; stroke-miterlimit: 4; fill: rgb(255,255,255); fill-opacity: 0.6; fill-rule: nonzero; opacity: 1;" vector-effect="non-scaling-stroke"  transform=" translate(-12.75, -16.72)" d="M 9 16.22 L 16.498 20.573 L 16.498 12.872 z" stroke-linecap="round" />
</g>
<g transform="matrix(55.48 0 0 55.48 266.07 769.17)"  >
<path style="stroke: none; stroke-width: 1; stroke-dasharray: none; stroke-linecap: butt; stroke-dashoffset: 0; stroke-linejoin: miter; stroke-miterlimit: 4; fill: rgb(90,18,116); fill-rule: nonzero; opacity: 1;" vector-effect="non-scaling-stroke"  transform=" translate(-3.5, -11.88)" d="M 2.5 11.25 L 4.5 11.25 L 4.5 12.5 L 2.5 12.5 z" stroke-linecap="round" />
</g>
<g transform="matrix(NaN NaN NaN NaN 0 0)"  >
<g style=""   >
</g>
</g>
<g transform="matrix(NaN NaN NaN NaN 0 0)"  >
<g style=""   >
</g>
</g>
<g transform="matrix(NaN NaN NaN NaN 0 0)"  >
<g style=""   >
</g>
</g>
<g transform="matrix(NaN NaN NaN NaN 0 0)"  >
<g style=""   >
</g>
</g>
<g transform="matrix(NaN NaN NaN NaN 0 0)"  >
<g style=""   >
</g>
</g>
</svg>